<svg xmlns="http://www.w3.org/2000/svg" viewBox="-1 -1 18 18" shape-rendering="crispEdges"><title>block:3</title><metadata>Derived from supplied PSP terrain atlas cell 0,0; 2px vector pixels, 28% grayscale mix, -7deg rotation.</metadata><g transform="rotate(-7 8 8)"><rect x="0" y="0" width="2" height="2" fill="rgb(76 101 64)" fill-opacity="1.000"/><rect x="2" y="0" width="2" height="2" fill="rgb(72 96 61)" fill-opacity="1.000"/><rect x="4" y="0" width="2" height="2" fill="rgb(69 91 58)" fill-opacity="1.000"/><rect x="6" y="0" width="2" height="2" fill="rgb(69 92 58)" fill-opacity="1.000"/><rect x="8" y="0" width="2" height="2" fill="rgb(77 102 65)" fill-opacity="1.000"/><rect x="10" y="0" width="2" height="2" fill="rgb(75 101 64)" fill-opacity="1.000"/><rect x="12" y="0" width="2" height="2" fill="rgb(84 111 70)" fill-opacity="1.000"/><rect x="14" y="0" width="2" height="2" fill="rgb(70 93 59)" fill-opacity="1.000"/><rect x="0" y="2" width="2" height="2" fill="rgb(67 89 56)" fill-opacity="1.000"/><rect x="2" y="2" width="2" height="2" fill="rgb(67 89 56)" fill-opacity="1.000"/><rect x="4" y="2" width="2" height="2" fill="rgb(71 95 60)" fill-opacity="1.000"/><rect x="6" y="2" width="2" height="2" fill="rgb(71 94 60)" fill-opacity="1.000"/><rect x="8" y="2" width="2" height="2" fill="rgb(72 96 61)" fill-opacity="1.000"/><rect x="10" y="2" width="2" height="2" fill="rgb(82 109 69)" fill-opacity="1.000"/><rect x="12" y="2" width="2" height="2" fill="rgb(70 94 59)" fill-opacity="1.000"/><rect x="14" y="2" width="2" height="2" fill="rgb(80 106 67)" fill-opacity="1.000"/><rect x="0" y="4" width="2" height="2" fill="rgb(73 97 61)" fill-opacity="1.000"/><rect x="2" y="4" width="2" height="2" fill="rgb(73 97 61)" fill-opacity="1.000"/><rect x="4" y="4" width="2" height="2" fill="rgb(78 105 66)" fill-opacity="1.000"/><rect x="6" y="4" width="2" height="2" fill="rgb(78 104 66)" fill-opacity="1.000"/><rect x="8" y="4" width="2" height="2" fill="rgb(75 101 64)" fill-opacity="1.000"/><rect x="10" y="4" width="2" height="2" fill="rgb(74 98 62)" fill-opacity="1.000"/><rect x="12" y="4" width="2" height="2" fill="rgb(73 97 61)" fill-opacity="1.000"/><rect x="14" y="4" width="2" height="2" fill="rgb(75 100 63)" fill-opacity="1.000"/><rect x="0" y="6" width="2" height="2" fill="rgb(69 91 58)" fill-opacity="1.000"/><rect x="2" y="6" width="2" height="2" fill="rgb(75 100 63)" fill-opacity="1.000"/><rect x="4" y="6" width="2" height="2" fill="rgb(69 92 58)" fill-opacity="1.000"/><rect x="6" y="6" width="2" height="2" fill="rgb(72 96 60)" fill-opacity="1.000"/><rect x="8" y="6" width="2" height="2" fill="rgb(77 102 65)" fill-opacity="1.000"/><rect x="10" y="6" width="2" height="2" fill="rgb(81 108 68)" fill-opacity="1.000"/><rect x="12" y="6" width="2" height="2" fill="rgb(81 108 68)" fill-opacity="1.000"/><rect x="14" y="6" width="2" height="2" fill="rgb(79 105 67)" fill-opacity="1.000"/><rect x="0" y="8" width="2" height="2" fill="rgb(75 99 63)" fill-opacity="1.000"/><rect x="2" y="8" width="2" height="2" fill="rgb(85 113 72)" fill-opacity="1.000"/><rect x="4" y="8" width="2" height="2" fill="rgb(75 100 64)" fill-opacity="1.000"/><rect x="6" y="8" width="2" height="2" fill="rgb(81 108 68)" fill-opacity="1.000"/><rect x="8" y="8" width="2" height="2" fill="rgb(82 109 69)" fill-opacity="1.000"/><rect x="10" y="8" width="2" height="2" fill="rgb(77 103 65)" fill-opacity="1.000"/><rect x="12" y="8" width="2" height="2" fill="rgb(79 105 67)" fill-opacity="1.000"/><rect x="14" y="8" width="2" height="2" fill="rgb(74 98 62)" fill-opacity="1.000"/><rect x="0" y="10" width="2" height="2" fill="rgb(77 103 65)" fill-opacity="1.000"/><rect x="2" y="10" width="2" height="2" fill="rgb(77 103 65)" fill-opacity="1.000"/><rect x="4" y="10" width="2" height="2" fill="rgb(76 101 64)" fill-opacity="1.000"/><rect x="6" y="10" width="2" height="2" fill="rgb(74 98 62)" fill-opacity="1.000"/><rect x="8" y="10" width="2" height="2" fill="rgb(79 105 67)" fill-opacity="1.000"/><rect x="10" y="10" width="2" height="2" fill="rgb(73 98 62)" fill-opacity="1.000"/><rect x="12" y="10" width="2" height="2" fill="rgb(77 102 65)" fill-opacity="1.000"/><rect x="14" y="10" width="2" height="2" fill="rgb(74 98 62)" fill-opacity="1.000"/><rect x="0" y="12" width="2" height="2" fill="rgb(79 106 67)" fill-opacity="1.000"/><rect x="2" y="12" width="2" height="2" fill="rgb(67 90 57)" fill-opacity="1.000"/><rect x="4" y="12" width="2" height="2" fill="rgb(74 98 62)" fill-opacity="1.000"/><rect x="6" y="12" width="2" height="2" fill="rgb(74 99 63)" fill-opacity="1.000"/><rect x="8" y="12" width="2" height="2" fill="rgb(77 102 65)" fill-opacity="1.000"/><rect x="10" y="12" width="2" height="2" fill="rgb(77 102 64)" fill-opacity="1.000"/><rect x="12" y="12" width="2" height="2" fill="rgb(81 108 69)" fill-opacity="1.000"/><rect x="14" y="12" width="2" height="2" fill="rgb(81 108 69)" fill-opacity="1.000"/><rect x="0" y="14" width="2" height="2" fill="rgb(76 102 65)" fill-opacity="1.000"/><rect x="2" y="14" width="2" height="2" fill="rgb(75 100 63)" fill-opacity="1.000"/><rect x="4" y="14" width="2" height="2" fill="rgb(85 114 72)" fill-opacity="1.000"/><rect x="6" y="14" width="2" height="2" fill="rgb(76 102 64)" fill-opacity="1.000"/><rect x="8" y="14" width="2" height="2" fill="rgb(79 105 67)" fill-opacity="1.000"/><rect x="10" y="14" width="2" height="2" fill="rgb(75 100 63)" fill-opacity="1.000"/><rect x="12" y="14" width="2" height="2" fill="rgb(79 105 67)" fill-opacity="1.000"/><rect x="14" y="14" width="2" height="2" fill="rgb(73 98 62)" fill-opacity="1.000"/></g></svg>