<svg xmlns="http://www.w3.org/2000/svg" viewBox="-1 -1 18 18" shape-rendering="crispEdges"><title>egg:2</title><metadata>Derived from supplied PSP items atlas cell 2,14; 2px vector pixels, 28% grayscale mix, -7deg rotation.</metadata><g transform="rotate(-7 8 8)"><rect x="4" y="2" width="2" height="2" fill="rgb(100 8 8)" fill-opacity="0.250"/><rect x="6" y="2" width="2" height="2" fill="rgb(107 76 76)" fill-opacity="0.750"/><rect x="8" y="2" width="2" height="2" fill="rgb(92 92 92)" fill-opacity="0.750"/><rect x="10" y="2" width="2" height="2" fill="rgb(98 8 8)" fill-opacity="0.250"/><rect x="4" y="4" width="2" height="2" fill="rgb(114 9 9)" fill-opacity="1.000"/><rect x="6" y="4" width="2" height="2" fill="rgb(147 11 11)" fill-opacity="1.000"/><rect x="8" y="4" width="2" height="2" fill="rgb(143 143 143)" fill-opacity="1.000"/><rect x="10" y="4" width="2" height="2" fill="rgb(102 24 24)" fill-opacity="1.000"/><rect x="2" y="6" width="2" height="2" fill="rgb(80 80 80)" fill-opacity="0.500"/><rect x="4" y="6" width="2" height="2" fill="rgb(148 111 111)" fill-opacity="1.000"/><rect x="6" y="6" width="2" height="2" fill="rgb(154 118 118)" fill-opacity="1.000"/><rect x="8" y="6" width="2" height="2" fill="rgb(141 112 112)" fill-opacity="1.000"/><rect x="10" y="6" width="2" height="2" fill="rgb(121 97 97)" fill-opacity="1.000"/><rect x="12" y="6" width="2" height="2" fill="rgb(68 68 68)" fill-opacity="0.500"/><rect x="2" y="8" width="2" height="2" fill="rgb(111 59 59)" fill-opacity="1.000"/><rect x="4" y="8" width="2" height="2" fill="rgb(156 79 79)" fill-opacity="1.000"/><rect x="6" y="8" width="2" height="2" fill="rgb(153 113 113)" fill-opacity="1.000"/><rect x="8" y="8" width="2" height="2" fill="rgb(141 106 106)" fill-opacity="1.000"/><rect x="10" y="8" width="2" height="2" fill="rgb(121 97 97)" fill-opacity="1.000"/><rect x="12" y="8" width="2" height="2" fill="rgb(97 97 97)" fill-opacity="1.000"/><rect x="2" y="10" width="2" height="2" fill="rgb(94 32 32)" fill-opacity="0.750"/><rect x="4" y="10" width="2" height="2" fill="rgb(143 143 143)" fill-opacity="1.000"/><rect x="6" y="10" width="2" height="2" fill="rgb(139 45 45)" fill-opacity="1.000"/><rect x="8" y="10" width="2" height="2" fill="rgb(127 103 103)" fill-opacity="1.000"/><rect x="10" y="10" width="2" height="2" fill="rgb(116 67 67)" fill-opacity="1.000"/><rect x="12" y="10" width="2" height="2" fill="rgb(82 25 25)" fill-opacity="0.750"/><rect x="2" y="12" width="2" height="2" fill="rgb(80 80 80)" fill-opacity="0.250"/><rect x="4" y="12" width="2" height="2" fill="rgb(97 97 97)" fill-opacity="1.000"/><rect x="6" y="12" width="2" height="2" fill="rgb(121 68 68)" fill-opacity="1.000"/><rect x="8" y="12" width="2" height="2" fill="rgb(120 97 97)" fill-opacity="1.000"/><rect x="10" y="12" width="2" height="2" fill="rgb(86 21 21)" fill-opacity="1.000"/><rect x="12" y="12" width="2" height="2" fill="rgb(86 7 7)" fill-opacity="0.250"/><rect x="6" y="14" width="2" height="2" fill="rgb(80 37 37)" fill-opacity="0.500"/><rect x="8" y="14" width="2" height="2" fill="rgb(78 35 35)" fill-opacity="0.500"/></g></svg>