<svg xmlns="http://www.w3.org/2000/svg" viewBox="-1 -1 18 18" shape-rendering="crispEdges"><title>item:cooked-chicken</title><metadata>Derived from supplied PSP items atlas cell 10,7; 2px vector pixels, 28% grayscale mix, -7deg rotation.</metadata><g transform="rotate(-7 8 8)"><rect x="4" y="0" width="2" height="2" fill="rgb(123 71 46)" fill-opacity="0.250"/><rect x="6" y="0" width="2" height="2" fill="rgb(123 71 46)" fill-opacity="0.500"/><rect x="8" y="0" width="2" height="2" fill="rgb(123 71 46)" fill-opacity="0.250"/><rect x="4" y="2" width="2" height="2" fill="rgb(167 114 85)" fill-opacity="1.000"/><rect x="6" y="2" width="2" height="2" fill="rgb(185 133 102)" fill-opacity="1.000"/><rect x="8" y="2" width="2" height="2" fill="rgb(162 106 74)" fill-opacity="1.000"/><rect x="10" y="2" width="2" height="2" fill="rgb(133 80 52)" fill-opacity="0.750"/><rect x="2" y="4" width="2" height="2" fill="rgb(123 71 46)" fill-opacity="0.500"/><rect x="4" y="4" width="2" height="2" fill="rgb(190 137 103)" fill-opacity="1.000"/><rect x="6" y="4" width="2" height="2" fill="rgb(185 133 102)" fill-opacity="1.000"/><rect x="8" y="4" width="2" height="2" fill="rgb(217 184 164)" fill-opacity="1.000"/><rect x="10" y="4" width="2" height="2" fill="rgb(211 172 149)" fill-opacity="1.000"/><rect x="12" y="4" width="2" height="2" fill="rgb(115 74 48)" fill-opacity="0.750"/><rect x="2" y="6" width="2" height="2" fill="rgb(146 96 68)" fill-opacity="0.750"/><rect x="4" y="6" width="2" height="2" fill="rgb(167 114 85)" fill-opacity="1.000"/><rect x="6" y="6" width="2" height="2" fill="rgb(214 176 154)" fill-opacity="1.000"/><rect x="8" y="6" width="2" height="2" fill="rgb(217 184 164)" fill-opacity="1.000"/><rect x="10" y="6" width="2" height="2" fill="rgb(204 156 130)" fill-opacity="1.000"/><rect x="12" y="6" width="2" height="2" fill="rgb(190 137 103)" fill-opacity="1.000"/><rect x="14" y="6" width="2" height="2" fill="rgb(79 46 26)" fill-opacity="0.500"/><rect x="2" y="8" width="2" height="2" fill="rgb(158 108 80)" fill-opacity="1.000"/><rect x="4" y="8" width="2" height="2" fill="rgb(156 104 74)" fill-opacity="1.000"/><rect x="6" y="8" width="2" height="2" fill="rgb(173 122 96)" fill-opacity="1.000"/><rect x="8" y="8" width="2" height="2" fill="rgb(168 124 100)" fill-opacity="1.000"/><rect x="10" y="8" width="2" height="2" fill="rgb(174 123 91)" fill-opacity="1.000"/><rect x="12" y="8" width="2" height="2" fill="rgb(151 100 69)" fill-opacity="1.000"/><rect x="14" y="8" width="2" height="2" fill="rgb(79 46 26)" fill-opacity="0.250"/><rect x="2" y="10" width="2" height="2" fill="rgb(160 111 82)" fill-opacity="1.000"/><rect x="4" y="10" width="2" height="2" fill="rgb(138 84 55)" fill-opacity="1.000"/><rect x="6" y="10" width="2" height="2" fill="rgb(184 138 112)" fill-opacity="1.000"/><rect x="8" y="10" width="2" height="2" fill="rgb(205 160 134)" fill-opacity="1.000"/><rect x="10" y="10" width="2" height="2" fill="rgb(120 71 46)" fill-opacity="1.000"/><rect x="12" y="10" width="2" height="2" fill="rgb(104 63 39)" fill-opacity="0.750"/><rect x="2" y="12" width="2" height="2" fill="rgb(154 125 104)" fill-opacity="0.500"/><rect x="4" y="12" width="2" height="2" fill="rgb(134 90 65)" fill-opacity="1.000"/><rect x="6" y="12" width="2" height="2" fill="rgb(165 116 91)" fill-opacity="1.000"/><rect x="8" y="12" width="2" height="2" fill="rgb(117 73 47)" fill-opacity="1.000"/><rect x="10" y="12" width="2" height="2" fill="rgb(79 46 26)" fill-opacity="0.250"/><rect x="4" y="14" width="2" height="2" fill="rgb(154 125 104)" fill-opacity="0.500"/><rect x="6" y="14" width="2" height="2" fill="rgb(79 46 26)" fill-opacity="0.500"/></g></svg>