<svg xmlns="http://www.w3.org/2000/svg" viewBox="-1 -1 18 18" shape-rendering="crispEdges"><title>item:iron-leggings</title><metadata>Derived from supplied PSP items atlas cell 2,2; 2px vector pixels, 28% grayscale mix, -7deg rotation.</metadata><g transform="rotate(-7 8 8)"><rect x="2" y="2" width="2" height="2" fill="rgb(45 45 45)" fill-opacity="0.250"/><rect x="4" y="2" width="2" height="2" fill="rgb(140 140 140)" fill-opacity="1.000"/><rect x="6" y="2" width="2" height="2" fill="rgb(140 140 140)" fill-opacity="1.000"/><rect x="8" y="2" width="2" height="2" fill="rgb(126 126 126)" fill-opacity="1.000"/><rect x="10" y="2" width="2" height="2" fill="rgb(94 94 94)" fill-opacity="1.000"/><rect x="12" y="2" width="2" height="2" fill="rgb(25 25 25)" fill-opacity="0.250"/><rect x="2" y="4" width="2" height="2" fill="rgb(45 45 45)" fill-opacity="0.500"/><rect x="4" y="4" width="2" height="2" fill="rgb(212 212 212)" fill-opacity="1.000"/><rect x="6" y="4" width="2" height="2" fill="rgb(174 174 174)" fill-opacity="1.000"/><rect x="8" y="4" width="2" height="2" fill="rgb(186 186 186)" fill-opacity="1.000"/><rect x="10" y="4" width="2" height="2" fill="rgb(174 174 174)" fill-opacity="1.000"/><rect x="12" y="4" width="2" height="2" fill="rgb(25 25 25)" fill-opacity="0.500"/><rect x="2" y="6" width="2" height="2" fill="rgb(45 45 45)" fill-opacity="0.500"/><rect x="4" y="6" width="2" height="2" fill="rgb(203 203 203)" fill-opacity="1.000"/><rect x="6" y="6" width="2" height="2" fill="rgb(67 67 67)" fill-opacity="0.750"/><rect x="8" y="6" width="2" height="2" fill="rgb(52 52 52)" fill-opacity="0.750"/><rect x="10" y="6" width="2" height="2" fill="rgb(174 174 174)" fill-opacity="1.000"/><rect x="12" y="6" width="2" height="2" fill="rgb(25 25 25)" fill-opacity="0.500"/><rect x="2" y="8" width="2" height="2" fill="rgb(45 45 45)" fill-opacity="0.500"/><rect x="4" y="8" width="2" height="2" fill="rgb(174 174 174)" fill-opacity="1.000"/><rect x="6" y="8" width="2" height="2" fill="rgb(25 25 25)" fill-opacity="0.500"/><rect x="8" y="8" width="2" height="2" fill="rgb(45 45 45)" fill-opacity="0.500"/><rect x="10" y="8" width="2" height="2" fill="rgb(174 174 174)" fill-opacity="1.000"/><rect x="12" y="8" width="2" height="2" fill="rgb(25 25 25)" fill-opacity="0.500"/><rect x="2" y="10" width="2" height="2" fill="rgb(45 45 45)" fill-opacity="0.500"/><rect x="4" y="10" width="2" height="2" fill="rgb(139 139 139)" fill-opacity="1.000"/><rect x="6" y="10" width="2" height="2" fill="rgb(25 25 25)" fill-opacity="0.500"/><rect x="8" y="10" width="2" height="2" fill="rgb(25 25 25)" fill-opacity="0.500"/><rect x="10" y="10" width="2" height="2" fill="rgb(139 139 139)" fill-opacity="1.000"/><rect x="12" y="10" width="2" height="2" fill="rgb(25 25 25)" fill-opacity="0.500"/><rect x="2" y="12" width="2" height="2" fill="rgb(25 25 25)" fill-opacity="0.500"/><rect x="4" y="12" width="2" height="2" fill="rgb(66 66 66)" fill-opacity="1.000"/><rect x="6" y="12" width="2" height="2" fill="rgb(25 25 25)" fill-opacity="0.500"/><rect x="8" y="12" width="2" height="2" fill="rgb(25 25 25)" fill-opacity="0.500"/><rect x="10" y="12" width="2" height="2" fill="rgb(66 66 66)" fill-opacity="1.000"/><rect x="12" y="12" width="2" height="2" fill="rgb(25 25 25)" fill-opacity="0.500"/></g></svg>