<svg xmlns="http://www.w3.org/2000/svg" viewBox="-1 -1 18 18" shape-rendering="crispEdges"><title>item:birch-sapling</title><metadata>Derived from supplied PSP terrain atlas cell 14,1; 2px vector pixels, 28% grayscale mix, -7deg rotation.</metadata><g transform="rotate(-7 8 8)"><rect x="6" y="0" width="2" height="2" fill="rgb(117 153 80)" fill-opacity="0.250"/><rect x="8" y="0" width="2" height="2" fill="rgb(107 138 74)" fill-opacity="0.500"/><rect x="4" y="2" width="2" height="2" fill="rgb(117 153 80)" fill-opacity="0.250"/><rect x="6" y="2" width="2" height="2" fill="rgb(96 122 68)" fill-opacity="0.500"/><rect x="8" y="2" width="2" height="2" fill="rgb(140 159 107)" fill-opacity="1.000"/><rect x="10" y="2" width="2" height="2" fill="rgb(110 143 76)" fill-opacity="0.750"/><rect x="4" y="4" width="2" height="2" fill="rgb(117 153 80)" fill-opacity="0.750"/><rect x="6" y="4" width="2" height="2" fill="rgb(119 144 83)" fill-opacity="1.000"/><rect x="8" y="4" width="2" height="2" fill="rgb(201 209 168)" fill-opacity="1.000"/><rect x="10" y="4" width="2" height="2" fill="rgb(104 135 72)" fill-opacity="1.000"/><rect x="12" y="4" width="2" height="2" fill="rgb(96 122 68)" fill-opacity="0.250"/><rect x="4" y="6" width="2" height="2" fill="rgb(117 153 80)" fill-opacity="0.250"/><rect x="6" y="6" width="2" height="2" fill="rgb(128 153 98)" fill-opacity="1.000"/><rect x="8" y="6" width="2" height="2" fill="rgb(165 177 125)" fill-opacity="1.000"/><rect x="10" y="6" width="2" height="2" fill="rgb(119 144 83)" fill-opacity="1.000"/><rect x="12" y="6" width="2" height="2" fill="rgb(96 122 68)" fill-opacity="0.500"/><rect x="4" y="8" width="2" height="2" fill="rgb(103 133 72)" fill-opacity="0.750"/><rect x="6" y="8" width="2" height="2" fill="rgb(110 143 75)" fill-opacity="1.000"/><rect x="8" y="8" width="2" height="2" fill="rgb(160 175 120)" fill-opacity="1.000"/><rect x="10" y="8" width="2" height="2" fill="rgb(126 154 87)" fill-opacity="1.000"/><rect x="12" y="8" width="2" height="2" fill="rgb(124 152 85)" fill-opacity="1.000"/><rect x="2" y="10" width="2" height="2" fill="rgb(117 153 80)" fill-opacity="0.250"/><rect x="4" y="10" width="2" height="2" fill="rgb(119 144 83)" fill-opacity="1.000"/><rect x="6" y="10" width="2" height="2" fill="rgb(180 194 143)" fill-opacity="1.000"/><rect x="8" y="10" width="2" height="2" fill="rgb(225 221 195)" fill-opacity="1.000"/><rect x="10" y="10" width="2" height="2" fill="rgb(131 158 99)" fill-opacity="1.000"/><rect x="12" y="10" width="2" height="2" fill="rgb(96 122 68)" fill-opacity="0.250"/><rect x="4" y="12" width="2" height="2" fill="rgb(117 153 80)" fill-opacity="0.250"/><rect x="6" y="12" width="2" height="2" fill="rgb(112 145 77)" fill-opacity="1.000"/><rect x="8" y="12" width="2" height="2" fill="rgb(160 177 130)" fill-opacity="1.000"/><rect x="10" y="12" width="2" height="2" fill="rgb(102 133 70)" fill-opacity="0.500"/><rect x="6" y="14" width="2" height="2" fill="rgb(174 188 121)" fill-opacity="0.500"/><rect x="8" y="14" width="2" height="2" fill="rgb(119 144 83)" fill-opacity="1.000"/></g></svg>