<svg xmlns="http://www.w3.org/2000/svg" viewBox="-1 -1 18 18" shape-rendering="crispEdges"><title>item:leather-helmet</title><metadata>Derived from supplied PSP items atlas cell 0,0; 2px vector pixels, 28% grayscale mix, -7deg rotation.</metadata><g transform="rotate(-7 8 8)"><rect x="4" y="2" width="2" height="2" fill="rgb(58 42 28)" fill-opacity="0.250"/><rect x="6" y="2" width="2" height="2" fill="rgb(53 38 27)" fill-opacity="0.500"/><rect x="8" y="2" width="2" height="2" fill="rgb(53 38 27)" fill-opacity="0.500"/><rect x="10" y="2" width="2" height="2" fill="rgb(58 42 28)" fill-opacity="0.250"/><rect x="2" y="4" width="2" height="2" fill="rgb(58 42 28)" fill-opacity="0.250"/><rect x="4" y="4" width="2" height="2" fill="rgb(109 77 57)" fill-opacity="1.000"/><rect x="6" y="4" width="2" height="2" fill="rgb(92 65 48)" fill-opacity="1.000"/><rect x="8" y="4" width="2" height="2" fill="rgb(84 60 44)" fill-opacity="1.000"/><rect x="10" y="4" width="2" height="2" fill="rgb(71 50 37)" fill-opacity="1.000"/><rect x="12" y="4" width="2" height="2" fill="rgb(45 33 22)" fill-opacity="0.250"/><rect x="2" y="6" width="2" height="2" fill="rgb(58 42 28)" fill-opacity="0.500"/><rect x="4" y="6" width="2" height="2" fill="rgb(114 80 59)" fill-opacity="1.000"/><rect x="6" y="6" width="2" height="2" fill="rgb(64 46 33)" fill-opacity="1.000"/><rect x="8" y="6" width="2" height="2" fill="rgb(55 39 28)" fill-opacity="1.000"/><rect x="10" y="6" width="2" height="2" fill="rgb(86 61 45)" fill-opacity="1.000"/><rect x="12" y="6" width="2" height="2" fill="rgb(45 33 22)" fill-opacity="0.500"/><rect x="2" y="8" width="2" height="2" fill="rgb(58 42 28)" fill-opacity="0.500"/><rect x="4" y="8" width="2" height="2" fill="rgb(82 58 42)" fill-opacity="1.000"/><rect x="6" y="8" width="2" height="2" fill="rgb(6 4 3)" fill-opacity="1.000"/><rect x="8" y="8" width="2" height="2" fill="rgb(6 4 3)" fill-opacity="1.000"/><rect x="10" y="8" width="2" height="2" fill="rgb(64 45 32)" fill-opacity="1.000"/><rect x="12" y="8" width="2" height="2" fill="rgb(45 33 22)" fill-opacity="0.500"/><rect x="2" y="10" width="2" height="2" fill="rgb(58 42 28)" fill-opacity="0.250"/><rect x="4" y="10" width="2" height="2" fill="rgb(67 48 34)" fill-opacity="1.000"/><rect x="6" y="10" width="2" height="2" fill="rgb(6 4 3)" fill-opacity="0.500"/><rect x="8" y="10" width="2" height="2" fill="rgb(6 4 3)" fill-opacity="0.500"/><rect x="10" y="10" width="2" height="2" fill="rgb(52 38 26)" fill-opacity="1.000"/><rect x="12" y="10" width="2" height="2" fill="rgb(45 33 22)" fill-opacity="0.250"/></g></svg>