<svg xmlns="http://www.w3.org/2000/svg" viewBox="-1 -1 18 18" shape-rendering="crispEdges"><title>item:bucket</title><metadata>Derived from supplied PSP items atlas cell 11,4; 2px vector pixels, 28% grayscale mix, -7deg rotation.</metadata><g transform="rotate(-7 8 8)"><rect x="2" y="2" width="2" height="2" fill="rgb(53 53 53)" fill-opacity="0.250"/><rect x="4" y="2" width="2" height="2" fill="rgb(75 75 75)" fill-opacity="0.750"/><rect x="6" y="2" width="2" height="2" fill="rgb(95 95 95)" fill-opacity="1.000"/><rect x="8" y="2" width="2" height="2" fill="rgb(103 103 103)" fill-opacity="1.000"/><rect x="10" y="2" width="2" height="2" fill="rgb(86 86 86)" fill-opacity="0.750"/><rect x="12" y="2" width="2" height="2" fill="rgb(53 53 53)" fill-opacity="0.250"/><rect x="2" y="4" width="2" height="2" fill="rgb(68 76 99)" fill-opacity="1.000"/><rect x="4" y="4" width="2" height="2" fill="rgb(72 102 189)" fill-opacity="1.000"/><rect x="6" y="4" width="2" height="2" fill="rgb(81 112 198)" fill-opacity="1.000"/><rect x="8" y="4" width="2" height="2" fill="rgb(72 102 189)" fill-opacity="1.000"/><rect x="10" y="4" width="2" height="2" fill="rgb(62 93 182)" fill-opacity="1.000"/><rect x="12" y="4" width="2" height="2" fill="rgb(68 76 99)" fill-opacity="1.000"/><rect x="2" y="6" width="2" height="2" fill="rgb(94 94 94)" fill-opacity="1.000"/><rect x="4" y="6" width="2" height="2" fill="rgb(80 88 111)" fill-opacity="1.000"/><rect x="6" y="6" width="2" height="2" fill="rgb(62 78 122)" fill-opacity="1.000"/><rect x="8" y="6" width="2" height="2" fill="rgb(62 78 122)" fill-opacity="1.000"/><rect x="10" y="6" width="2" height="2" fill="rgb(67 75 97)" fill-opacity="1.000"/><rect x="12" y="6" width="2" height="2" fill="rgb(77 77 77)" fill-opacity="1.000"/><rect x="2" y="8" width="2" height="2" fill="rgb(135 135 135)" fill-opacity="1.000"/><rect x="4" y="8" width="2" height="2" fill="rgb(226 226 226)" fill-opacity="1.000"/><rect x="6" y="8" width="2" height="2" fill="rgb(192 192 192)" fill-opacity="1.000"/><rect x="8" y="8" width="2" height="2" fill="rgb(159 159 159)" fill-opacity="1.000"/><rect x="10" y="8" width="2" height="2" fill="rgb(114 114 114)" fill-opacity="1.000"/><rect x="12" y="8" width="2" height="2" fill="rgb(106 106 106)" fill-opacity="1.000"/><rect x="2" y="10" width="2" height="2" fill="rgb(97 97 97)" fill-opacity="1.000"/><rect x="4" y="10" width="2" height="2" fill="rgb(236 236 236)" fill-opacity="1.000"/><rect x="6" y="10" width="2" height="2" fill="rgb(192 192 192)" fill-opacity="1.000"/><rect x="8" y="10" width="2" height="2" fill="rgb(159 159 159)" fill-opacity="1.000"/><rect x="10" y="10" width="2" height="2" fill="rgb(114 114 114)" fill-opacity="1.000"/><rect x="12" y="10" width="2" height="2" fill="rgb(106 106 106)" fill-opacity="1.000"/><rect x="2" y="12" width="2" height="2" fill="rgb(53 53 53)" fill-opacity="0.500"/><rect x="4" y="12" width="2" height="2" fill="rgb(204 204 204)" fill-opacity="1.000"/><rect x="6" y="12" width="2" height="2" fill="rgb(192 192 192)" fill-opacity="1.000"/><rect x="8" y="12" width="2" height="2" fill="rgb(155 155 155)" fill-opacity="1.000"/><rect x="10" y="12" width="2" height="2" fill="rgb(132 132 132)" fill-opacity="1.000"/><rect x="12" y="12" width="2" height="2" fill="rgb(53 53 53)" fill-opacity="0.500"/><rect x="4" y="14" width="2" height="2" fill="rgb(91 91 91)" fill-opacity="0.750"/><rect x="6" y="14" width="2" height="2" fill="rgb(123 123 123)" fill-opacity="1.000"/><rect x="8" y="14" width="2" height="2" fill="rgb(93 93 93)" fill-opacity="1.000"/><rect x="10" y="14" width="2" height="2" fill="rgb(85 85 85)" fill-opacity="0.750"/></g></svg>