<svg xmlns="http://www.w3.org/2000/svg" viewBox="-1 -1 18 18" shape-rendering="crispEdges"><title>item:pink-dye</title><metadata>Derived from supplied PSP items atlas cell 15,5; 2px vector pixels, 28% grayscale mix, -7deg rotation.</metadata><g transform="rotate(-7 8 8)"><rect x="4" y="4" width="2" height="2" fill="rgb(140 82 136)" fill-opacity="0.500"/><rect x="6" y="4" width="2" height="2" fill="rgb(184 130 170)" fill-opacity="1.000"/><rect x="8" y="4" width="2" height="2" fill="rgb(176 120 161)" fill-opacity="1.000"/><rect x="10" y="4" width="2" height="2" fill="rgb(112 59 87)" fill-opacity="0.500"/><rect x="2" y="6" width="2" height="2" fill="rgb(173 124 162)" fill-opacity="0.750"/><rect x="4" y="6" width="2" height="2" fill="rgb(229 184 205)" fill-opacity="1.000"/><rect x="6" y="6" width="2" height="2" fill="rgb(232 187 208)" fill-opacity="1.000"/><rect x="8" y="6" width="2" height="2" fill="rgb(220 168 195)" fill-opacity="1.000"/><rect x="10" y="6" width="2" height="2" fill="rgb(194 135 165)" fill-opacity="1.000"/><rect x="12" y="6" width="2" height="2" fill="rgb(149 97 124)" fill-opacity="0.750"/><rect x="2" y="8" width="2" height="2" fill="rgb(179 123 164)" fill-opacity="1.000"/><rect x="4" y="8" width="2" height="2" fill="rgb(229 184 205)" fill-opacity="1.000"/><rect x="6" y="8" width="2" height="2" fill="rgb(225 175 201)" fill-opacity="1.000"/><rect x="8" y="8" width="2" height="2" fill="rgb(220 172 195)" fill-opacity="1.000"/><rect x="10" y="8" width="2" height="2" fill="rgb(203 147 176)" fill-opacity="1.000"/><rect x="12" y="8" width="2" height="2" fill="rgb(153 97 126)" fill-opacity="1.000"/><rect x="2" y="10" width="2" height="2" fill="rgb(140 82 136)" fill-opacity="0.250"/><rect x="4" y="10" width="2" height="2" fill="rgb(157 102 130)" fill-opacity="1.000"/><rect x="6" y="10" width="2" height="2" fill="rgb(223 171 198)" fill-opacity="1.000"/><rect x="8" y="10" width="2" height="2" fill="rgb(198 140 170)" fill-opacity="1.000"/><rect x="10" y="10" width="2" height="2" fill="rgb(149 92 122)" fill-opacity="1.000"/><rect x="12" y="10" width="2" height="2" fill="rgb(112 59 87)" fill-opacity="0.250"/><rect x="6" y="12" width="2" height="2" fill="rgb(112 59 87)" fill-opacity="0.500"/><rect x="8" y="12" width="2" height="2" fill="rgb(112 59 87)" fill-opacity="0.500"/></g></svg>