<svg xmlns="http://www.w3.org/2000/svg" viewBox="-1 -1 18 18" shape-rendering="crispEdges"><title>item:raw-porkchop</title><metadata>Derived from supplied PSP items atlas cell 7,5; 2px vector pixels, 28% grayscale mix, -7deg rotation.</metadata><g transform="rotate(-7 8 8)"><rect x="8" y="2" width="2" height="2" fill="rgb(169 99 99)" fill-opacity="0.750"/><rect x="10" y="2" width="2" height="2" fill="rgb(180 104 104)" fill-opacity="1.000"/><rect x="12" y="2" width="2" height="2" fill="rgb(164 94 94)" fill-opacity="0.750"/><rect x="6" y="4" width="2" height="2" fill="rgb(178 118 118)" fill-opacity="0.750"/><rect x="8" y="4" width="2" height="2" fill="rgb(216 126 126)" fill-opacity="1.000"/><rect x="10" y="4" width="2" height="2" fill="rgb(223 130 130)" fill-opacity="1.000"/><rect x="12" y="4" width="2" height="2" fill="rgb(207 133 133)" fill-opacity="1.000"/><rect x="14" y="4" width="2" height="2" fill="rgb(117 66 66)" fill-opacity="0.500"/><rect x="2" y="6" width="2" height="2" fill="rgb(148 88 88)" fill-opacity="0.250"/><rect x="4" y="6" width="2" height="2" fill="rgb(189 117 117)" fill-opacity="1.000"/><rect x="6" y="6" width="2" height="2" fill="rgb(215 121 121)" fill-opacity="1.000"/><rect x="8" y="6" width="2" height="2" fill="rgb(226 132 132)" fill-opacity="1.000"/><rect x="10" y="6" width="2" height="2" fill="rgb(227 137 137)" fill-opacity="1.000"/><rect x="12" y="6" width="2" height="2" fill="rgb(227 151 151)" fill-opacity="1.000"/><rect x="14" y="6" width="2" height="2" fill="rgb(94 53 53)" fill-opacity="0.500"/><rect x="2" y="8" width="2" height="2" fill="rgb(169 99 99)" fill-opacity="0.750"/><rect x="4" y="8" width="2" height="2" fill="rgb(226 143 143)" fill-opacity="1.000"/><rect x="6" y="8" width="2" height="2" fill="rgb(221 136 136)" fill-opacity="1.000"/><rect x="8" y="8" width="2" height="2" fill="rgb(224 138 138)" fill-opacity="1.000"/><rect x="10" y="8" width="2" height="2" fill="rgb(238 184 184)" fill-opacity="1.000"/><rect x="12" y="8" width="2" height="2" fill="rgb(171 107 107)" fill-opacity="1.000"/><rect x="14" y="8" width="2" height="2" fill="rgb(72 41 41)" fill-opacity="0.250"/><rect x="2" y="10" width="2" height="2" fill="rgb(180 104 104)" fill-opacity="1.000"/><rect x="4" y="10" width="2" height="2" fill="rgb(222 125 125)" fill-opacity="1.000"/><rect x="6" y="10" width="2" height="2" fill="rgb(241 196 196)" fill-opacity="1.000"/><rect x="8" y="10" width="2" height="2" fill="rgb(240 190 190)" fill-opacity="1.000"/><rect x="10" y="10" width="2" height="2" fill="rgb(194 121 121)" fill-opacity="1.000"/><rect x="12" y="10" width="2" height="2" fill="rgb(87 49 49)" fill-opacity="0.750"/><rect x="2" y="12" width="2" height="2" fill="rgb(117 66 66)" fill-opacity="0.500"/><rect x="4" y="12" width="2" height="2" fill="rgb(163 105 105)" fill-opacity="1.000"/><rect x="6" y="12" width="2" height="2" fill="rgb(237 177 177)" fill-opacity="1.000"/><rect x="8" y="12" width="2" height="2" fill="rgb(134 80 80)" fill-opacity="1.000"/><rect x="10" y="12" width="2" height="2" fill="rgb(72 41 41)" fill-opacity="0.500"/><rect x="4" y="14" width="2" height="2" fill="rgb(72 41 41)" fill-opacity="0.250"/><rect x="6" y="14" width="2" height="2" fill="rgb(72 41 41)" fill-opacity="0.500"/><rect x="8" y="14" width="2" height="2" fill="rgb(72 41 41)" fill-opacity="0.250"/></g></svg>