<svg xmlns="http://www.w3.org/2000/svg" viewBox="-1 -1 18 18" shape-rendering="crispEdges"><title>item:painting</title><metadata>Derived from supplied PSP items atlas cell 10,1; 2px vector pixels, 28% grayscale mix, -7deg rotation.</metadata><g transform="rotate(-7 8 8)"><rect x="8" y="0" width="2" height="2" fill="rgb(99 99 99)" fill-opacity="0.250"/><rect x="6" y="2" width="2" height="2" fill="rgb(68 68 68)" fill-opacity="0.750"/><rect x="8" y="2" width="2" height="2" fill="rgb(48 48 48)" fill-opacity="0.750"/><rect x="10" y="2" width="2" height="2" fill="rgb(53 53 53)" fill-opacity="0.250"/><rect x="2" y="4" width="2" height="2" fill="rgb(149 132 104)" fill-opacity="1.000"/><rect x="4" y="4" width="2" height="2" fill="rgb(140 121 101)" fill-opacity="1.000"/><rect x="6" y="4" width="2" height="2" fill="rgb(147 133 114)" fill-opacity="1.000"/><rect x="8" y="4" width="2" height="2" fill="rgb(132 110 87)" fill-opacity="1.000"/><rect x="10" y="4" width="2" height="2" fill="rgb(132 110 87)" fill-opacity="1.000"/><rect x="12" y="4" width="2" height="2" fill="rgb(129 107 83)" fill-opacity="1.000"/><rect x="14" y="4" width="2" height="2" fill="rgb(90 62 33)" fill-opacity="0.500"/><rect x="2" y="6" width="2" height="2" fill="rgb(140 121 101)" fill-opacity="1.000"/><rect x="4" y="6" width="2" height="2" fill="rgb(178 174 165)" fill-opacity="1.000"/><rect x="6" y="6" width="2" height="2" fill="rgb(199 197 191)" fill-opacity="1.000"/><rect x="8" y="6" width="2" height="2" fill="rgb(199 197 191)" fill-opacity="1.000"/><rect x="10" y="6" width="2" height="2" fill="rgb(194 191 184)" fill-opacity="1.000"/><rect x="12" y="6" width="2" height="2" fill="rgb(161 156 148)" fill-opacity="1.000"/><rect x="14" y="6" width="2" height="2" fill="rgb(90 62 33)" fill-opacity="0.500"/><rect x="2" y="8" width="2" height="2" fill="rgb(132 110 87)" fill-opacity="1.000"/><rect x="4" y="8" width="2" height="2" fill="rgb(199 197 191)" fill-opacity="1.000"/><rect x="6" y="8" width="2" height="2" fill="rgb(199 197 191)" fill-opacity="1.000"/><rect x="8" y="8" width="2" height="2" fill="rgb(199 197 191)" fill-opacity="1.000"/><rect x="10" y="8" width="2" height="2" fill="rgb(199 197 191)" fill-opacity="1.000"/><rect x="12" y="8" width="2" height="2" fill="rgb(178 174 167)" fill-opacity="1.000"/><rect x="14" y="8" width="2" height="2" fill="rgb(114 88 60)" fill-opacity="0.500"/><rect x="2" y="10" width="2" height="2" fill="rgb(132 110 87)" fill-opacity="1.000"/><rect x="4" y="10" width="2" height="2" fill="rgb(178 174 165)" fill-opacity="1.000"/><rect x="6" y="10" width="2" height="2" fill="rgb(199 197 191)" fill-opacity="1.000"/><rect x="8" y="10" width="2" height="2" fill="rgb(199 197 191)" fill-opacity="1.000"/><rect x="10" y="10" width="2" height="2" fill="rgb(194 191 184)" fill-opacity="1.000"/><rect x="12" y="10" width="2" height="2" fill="rgb(161 156 148)" fill-opacity="1.000"/><rect x="14" y="10" width="2" height="2" fill="rgb(123 93 59)" fill-opacity="0.500"/><rect x="2" y="12" width="2" height="2" fill="rgb(108 83 56)" fill-opacity="1.000"/><rect x="4" y="12" width="2" height="2" fill="rgb(127 108 87)" fill-opacity="1.000"/><rect x="6" y="12" width="2" height="2" fill="rgb(140 121 101)" fill-opacity="1.000"/><rect x="8" y="12" width="2" height="2" fill="rgb(140 121 101)" fill-opacity="1.000"/><rect x="10" y="12" width="2" height="2" fill="rgb(147 133 114)" fill-opacity="1.000"/><rect x="12" y="12" width="2" height="2" fill="rgb(153 141 118)" fill-opacity="1.000"/><rect x="14" y="12" width="2" height="2" fill="rgb(123 93 59)" fill-opacity="0.500"/><rect x="2" y="14" width="2" height="2" fill="rgb(35 28 15)" fill-opacity="0.500"/><rect x="4" y="14" width="2" height="2" fill="rgb(35 28 15)" fill-opacity="0.500"/><rect x="6" y="14" width="2" height="2" fill="rgb(35 28 15)" fill-opacity="0.500"/><rect x="8" y="14" width="2" height="2" fill="rgb(35 28 15)" fill-opacity="0.500"/><rect x="10" y="14" width="2" height="2" fill="rgb(35 28 15)" fill-opacity="0.500"/><rect x="12" y="14" width="2" height="2" fill="rgb(35 28 15)" fill-opacity="0.500"/><rect x="14" y="14" width="2" height="2" fill="rgb(35 28 15)" fill-opacity="0.250"/></g></svg>