<svg xmlns="http://www.w3.org/2000/svg" viewBox="-1 -1 18 18" shape-rendering="crispEdges"><title>item:bread</title><metadata>Derived from supplied PSP items atlas cell 9,2; 2px vector pixels, 28% grayscale mix, -7deg rotation.</metadata><g transform="rotate(-7 8 8)"><rect x="8" y="0" width="2" height="2" fill="rgb(94 75 38)" fill-opacity="0.250"/><rect x="10" y="0" width="2" height="2" fill="rgb(94 75 38)" fill-opacity="0.500"/><rect x="12" y="0" width="2" height="2" fill="rgb(94 75 38)" fill-opacity="0.250"/><rect x="6" y="2" width="2" height="2" fill="rgb(106 85 42)" fill-opacity="0.750"/><rect x="8" y="2" width="2" height="2" fill="rgb(143 114 56)" fill-opacity="1.000"/><rect x="10" y="2" width="2" height="2" fill="rgb(163 130 64)" fill-opacity="1.000"/><rect x="12" y="2" width="2" height="2" fill="rgb(126 101 50)" fill-opacity="1.000"/><rect x="14" y="2" width="2" height="2" fill="rgb(59 46 23)" fill-opacity="0.250"/><rect x="4" y="4" width="2" height="2" fill="rgb(121 96 48)" fill-opacity="0.750"/><rect x="6" y="4" width="2" height="2" fill="rgb(169 134 66)" fill-opacity="1.000"/><rect x="8" y="4" width="2" height="2" fill="rgb(147 116 57)" fill-opacity="1.000"/><rect x="10" y="4" width="2" height="2" fill="rgb(164 129 63)" fill-opacity="1.000"/><rect x="12" y="4" width="2" height="2" fill="rgb(147 116 57)" fill-opacity="1.000"/><rect x="14" y="4" width="2" height="2" fill="rgb(59 46 23)" fill-opacity="0.500"/><rect x="2" y="6" width="2" height="2" fill="rgb(106 85 42)" fill-opacity="0.750"/><rect x="4" y="6" width="2" height="2" fill="rgb(158 125 62)" fill-opacity="1.000"/><rect x="6" y="6" width="2" height="2" fill="rgb(164 129 63)" fill-opacity="1.000"/><rect x="8" y="6" width="2" height="2" fill="rgb(175 138 67)" fill-opacity="1.000"/><rect x="10" y="6" width="2" height="2" fill="rgb(158 125 62)" fill-opacity="1.000"/><rect x="12" y="6" width="2" height="2" fill="rgb(106 84 42)" fill-opacity="1.000"/><rect x="14" y="6" width="2" height="2" fill="rgb(59 46 23)" fill-opacity="0.500"/><rect x="0" y="8" width="2" height="2" fill="rgb(94 75 38)" fill-opacity="0.250"/><rect x="2" y="8" width="2" height="2" fill="rgb(143 114 56)" fill-opacity="1.000"/><rect x="4" y="8" width="2" height="2" fill="rgb(175 138 67)" fill-opacity="1.000"/><rect x="6" y="8" width="2" height="2" fill="rgb(152 121 60)" fill-opacity="1.000"/><rect x="8" y="8" width="2" height="2" fill="rgb(164 129 63)" fill-opacity="1.000"/><rect x="10" y="8" width="2" height="2" fill="rgb(121 96 48)" fill-opacity="1.000"/><rect x="12" y="8" width="2" height="2" fill="rgb(70 56 28)" fill-opacity="0.750"/><rect x="0" y="10" width="2" height="2" fill="rgb(94 75 38)" fill-opacity="0.500"/><rect x="2" y="10" width="2" height="2" fill="rgb(157 126 62)" fill-opacity="1.000"/><rect x="4" y="10" width="2" height="2" fill="rgb(175 138 67)" fill-opacity="1.000"/><rect x="6" y="10" width="2" height="2" fill="rgb(164 129 63)" fill-opacity="1.000"/><rect x="8" y="10" width="2" height="2" fill="rgb(121 96 48)" fill-opacity="1.000"/><rect x="10" y="10" width="2" height="2" fill="rgb(70 56 28)" fill-opacity="0.750"/><rect x="0" y="12" width="2" height="2" fill="rgb(81 65 33)" fill-opacity="0.500"/><rect x="2" y="12" width="2" height="2" fill="rgb(126 101 50)" fill-opacity="1.000"/><rect x="4" y="12" width="2" height="2" fill="rgb(135 108 53)" fill-opacity="1.000"/><rect x="6" y="12" width="2" height="2" fill="rgb(121 96 48)" fill-opacity="1.000"/><rect x="8" y="12" width="2" height="2" fill="rgb(70 56 28)" fill-opacity="0.750"/><rect x="2" y="14" width="2" height="2" fill="rgb(79 63 32)" fill-opacity="0.750"/><rect x="4" y="14" width="2" height="2" fill="rgb(76 61 31)" fill-opacity="1.000"/><rect x="6" y="14" width="2" height="2" fill="rgb(63 50 25)" fill-opacity="0.750"/></g></svg>