<svg xmlns="http://www.w3.org/2000/svg" viewBox="-1 -1 18 18" shape-rendering="crispEdges"><title>item:flint</title><metadata>Derived from supplied PSP items atlas cell 6,0; 2px vector pixels, 28% grayscale mix, -7deg rotation.</metadata><g transform="rotate(-7 8 8)"><rect x="8" y="2" width="2" height="2" fill="rgb(43 41 41)" fill-opacity="0.750"/><rect x="10" y="2" width="2" height="2" fill="rgb(37 35 35)" fill-opacity="1.000"/><rect x="12" y="2" width="2" height="2" fill="rgb(14 14 14)" fill-opacity="0.250"/><rect x="6" y="4" width="2" height="2" fill="rgb(38 36 36)" fill-opacity="0.750"/><rect x="8" y="4" width="2" height="2" fill="rgb(67 67 67)" fill-opacity="1.000"/><rect x="10" y="4" width="2" height="2" fill="rgb(90 90 90)" fill-opacity="1.000"/><rect x="12" y="4" width="2" height="2" fill="rgb(38 38 38)" fill-opacity="0.750"/><rect x="4" y="6" width="2" height="2" fill="rgb(43 41 41)" fill-opacity="0.750"/><rect x="6" y="6" width="2" height="2" fill="rgb(57 56 56)" fill-opacity="1.000"/><rect x="8" y="6" width="2" height="2" fill="rgb(107 107 107)" fill-opacity="1.000"/><rect x="10" y="6" width="2" height="2" fill="rgb(94 94 94)" fill-opacity="1.000"/><rect x="12" y="6" width="2" height="2" fill="rgb(39 38 38)" fill-opacity="1.000"/><rect x="14" y="6" width="2" height="2" fill="rgb(14 14 14)" fill-opacity="0.250"/><rect x="2" y="8" width="2" height="2" fill="rgb(34 32 32)" fill-opacity="0.500"/><rect x="4" y="8" width="2" height="2" fill="rgb(50 49 49)" fill-opacity="1.000"/><rect x="6" y="8" width="2" height="2" fill="rgb(76 76 76)" fill-opacity="1.000"/><rect x="8" y="8" width="2" height="2" fill="rgb(77 77 77)" fill-opacity="1.000"/><rect x="10" y="8" width="2" height="2" fill="rgb(46 46 46)" fill-opacity="1.000"/><rect x="12" y="8" width="2" height="2" fill="rgb(37 35 35)" fill-opacity="1.000"/><rect x="14" y="8" width="2" height="2" fill="rgb(38 38 38)" fill-opacity="0.750"/><rect x="2" y="10" width="2" height="2" fill="rgb(24 23 23)" fill-opacity="0.500"/><rect x="4" y="10" width="2" height="2" fill="rgb(46 46 46)" fill-opacity="1.000"/><rect x="6" y="10" width="2" height="2" fill="rgb(50 49 49)" fill-opacity="1.000"/><rect x="8" y="10" width="2" height="2" fill="rgb(46 46 46)" fill-opacity="1.000"/><rect x="10" y="10" width="2" height="2" fill="rgb(37 35 35)" fill-opacity="1.000"/><rect x="12" y="10" width="2" height="2" fill="rgb(71 70 70)" fill-opacity="1.000"/><rect x="14" y="10" width="2" height="2" fill="rgb(52 52 52)" fill-opacity="0.750"/><rect x="4" y="12" width="2" height="2" fill="rgb(25 24 24)" fill-opacity="0.750"/><rect x="6" y="12" width="2" height="2" fill="rgb(40 39 39)" fill-opacity="1.000"/><rect x="8" y="12" width="2" height="2" fill="rgb(50 49 49)" fill-opacity="1.000"/><rect x="10" y="12" width="2" height="2" fill="rgb(61 60 60)" fill-opacity="1.000"/><rect x="12" y="12" width="2" height="2" fill="rgb(38 38 38)" fill-opacity="0.750"/><rect x="6" y="14" width="2" height="2" fill="rgb(14 14 14)" fill-opacity="0.500"/><rect x="8" y="14" width="2" height="2" fill="rgb(14 14 14)" fill-opacity="0.500"/><rect x="10" y="14" width="2" height="2" fill="rgb(14 14 14)" fill-opacity="0.500"/></g></svg>